<svg width="1500" height="2666" viewBox="0 0 1500 2666" fill="none" xmlns="http://www.w3.org/2000/svg">
<path fill-rule="evenodd" clip-rule="evenodd" d="M839.444 2666H0V1946.49C3.83482 1943.45 8.03734 1940.56 12.6398 1937.84C80.361 1897.83 166.211 1923.28 252.553 1948.87C292.934 1960.84 333.422 1972.84 372.214 1978.2C398.767 1981.86 425.323 1984.61 451.72 1987.35C523.407 1994.79 593.925 2002.11 660.064 2027.17C671.506 2031.51 683.249 2035.82 695.129 2040.18C787.453 2074.08 888.028 2111.02 919.567 2185.61C941.343 2237.11 911.31 2287.13 880.592 2338.3C860.889 2371.11 840.904 2404.4 834.126 2438.85C827.489 2472.59 833.954 2508.59 840.324 2544.06C848.064 2587.15 855.664 2629.47 839.444 2666Z" fill="#989F93"/>
<path fill-rule="evenodd" clip-rule="evenodd" d="M1500 449.614C1450.86 450.352 1397.31 439.789 1343.21 429.116C1289.51 418.524 1235.26 407.824 1184.25 407.96C1132.89 408.096 1077.69 419.765 1023.03 431.319C909.971 455.22 799.223 478.632 729.518 398.474C665.661 325.04 699.881 230.205 735.587 131.249C751.263 87.8058 767.225 43.5688 775.301 0H1500V449.614Z" fill="#355050"/>
</svg>
